<?xml version="1.0" encoding="UTF-8"?>
<svg xmlns="http://www.w3.org/2000/svg" viewBox="0 0 1408.63 430.17">
    <g id="a" />
    <g id="b">
        <g id="c">
            <g>
                <path
                    d="M245.03,61.98c.27-5.92-.95-10.75-1.88-13.71-8.39-26.56-41.84-35.4-44.29-36-1.28-.35-6.6-1.59-13.52-2.81-4.53-.8-9.09-1.47-13.68-1.98v-.03l-3.25-.38c-5.17-.57-10.36-.86-15.56-.8-14.38,0-28.7,1.98-42.51,5.9-14.73,4.08-28.76,10.36-41.62,18.65-15.15,9.54-28.25,21.91-38.65,36.45-3,4.24-5.74,8.61-8.29,13.07-.03-.03-.1-.06-.13-.1-1.18,2.71-2.52,5.49-4.02,8.29-.51,.96-1.02,1.91-1.56,2.84,0,.03-.03,.06-.03,.1C-3.55,132.65-5.43,180.54,11.69,223.69c6.73,16.55,16.65,31.63,29.15,44.39,10.59,11.03,22.77,20.41,36.16,27.81,12.53,7.02,25.99,12.25,39.96,15.56,4.05,1.02,8.16,1.82,12.31,2.42l-.03,.06c.26,.03,3.7,.45,3.95,.45l2.39,.29,.03-.03c6.28,.92,50.23,6.86,86.64-24.97,40.37-35.27,36.39-86.2,35.91-91.27-.77-7.69-2.93-13.74-6.92-19.07-3.89-5.23-17.7-14.32-43.15-15.82-21.33-1.28-39.54,3.44-52.68,8.51,4.21,1.44,10.75,3.44,19.01,5.04,11.96,2.33,15.56,1.5,23.79,4.08,4.05,1.28,12.69,3.99,20.35,11.1,10.17,9.5,12.72,21.46,14.03,27.2,4.69,20.28-2.46,36.67-4.91,42.06-12.12,26.69-37.31,36.74-45.06,39.83-18.4,7.33-35.05,6.89-44.42,5.87-7.37-.1-18.82-1.18-31.7-6.22-2.52-.96-12.63-4.97-23.79-13.78-10.81-8.51-19.9-19.04-26.82-30.93-7.88-13.01-13.9-27.11-17.86-41.81-10.3-37.15-8.07-76.47,6-111.96,.06,.03,.16,.06,.22,.1,.51-1.63,1.15-3.22,1.85-4.85,.48-1.12,.99-2.2,1.53-3.25-.06-.03-.1-.03-.16-.06,1.85-4.11,3.89-8.13,6.09-12.12,7.24-13.33,16.3-25.61,26.95-36.45,9.41-9.92,20.57-17.99,32.94-23.79,16.61-7.65,34.98-10.65,53.19-8.74l1.05,.06,.06,.03c6.19,.83,16.23,3.03,26.56,9.6,.25,.16,.65,.42,1.19,.78,8.3,5.49,23.81,19.61,24.67,34.78,.91,16.13-15.31,24.28-11.35,30.71,2.99,4.86,14.72,4.19,22.32,0,12.96-7.15,13.74-24.45,13.87-27.33Z"
                    fill="currentColor" />
                <path
                    d="M313.01,66.56c-.04-8.4-.91-16.77-2.57-25-1.01-5.51-2.61-10.89-4.78-16.04-4.8-12.1-16.79-19.78-29.78-19.08V0c8.49-.01,16.94,1.19,25.08,3.58,6.74,2.01,13.14,5.02,18.97,8.95,6.88,4.76,12.55,11.07,16.56,18.41,5.87,10.94,8.86,23.2,8.68,35.62v212.24c0,11.96,5,23.38,13.78,31.49l1.29,1.18h-62.29l1.29-1.18c8.79-8.11,13.79-19.53,13.79-31.49l-.02-212.24Z"
                    fill="currentColor" />
                <path
                    d="M801.62,188.04v-.34c-.06-37.22-10.26-65.58-35.55-65.58-16.93,.28-33.12,6.97-45.3,18.71-9.33,8.57-17.47,18.35-24.21,29.08,.81,6.01,1.24,12.06,1.29,18.12v90.77c0,11.96,5,23.38,13.78,31.49l1.29,1.18h-62.29l1.29-1.18c8.79-8.11,13.79-19.53,13.79-31.49v-91.32c-.1-37.11-10.31-65.36-35.54-65.36-16.92,.28-33.11,6.96-45.3,18.71-9.02,8.28-16.93,17.69-23.54,28,.36,3.11,.56,6.24,.61,9.37v100.56c0,11.96,5,23.38,13.79,31.49l1.29,1.18h-62.29l1.29-1.18c8.79-8.11,13.79-19.53,13.79-31.49v-100.6c-.04-8.4-.91-16.77-2.57-25-1.01-5.51-2.61-10.88-4.78-16.04-4.8-12.1-16.79-19.78-29.78-19.08v-6.43c8.49-.01,16.93,1.19,25.08,3.58,6.74,2.01,13.14,5.02,18.97,8.95,6.88,4.76,12.55,11.07,16.56,18.41,3,5.41,5.2,11.23,6.54,17.27,16.78-23.85,44.26-48.21,75.2-48.21,4.9-.1,9.81,.23,14.65,1,4.19,.74,8.28,2,12.16,3.75,6.94,3.24,13.12,7.91,18.11,13.72,7.54,8.85,12.71,19.46,15.03,30.84,16.7-24.19,44.56-49.29,75.97-49.29,4.9-.1,9.81,.23,14.65,1,4.19,.74,8.28,2,12.16,3.76,6.94,3.24,13.12,7.91,18.12,13.72,9.97,11.51,17.62,28.2,17.94,57.93v90.77c0,11.96,5,23.38,13.79,31.49l1.29,1.18h-62.29l1.29-1.18c8.79-8.11,13.79-19.53,13.79-31.49v-90.77h-.04Z"
                    fill="currentColor" />
                <path
                    d="M1060.8,255.35l-.95,3.07c-.16,.51-16.5,50.43-86.8,51.93v.06h-6.43v-.1c-2-.07-3.99-.2-5.95-.43-9.51-.95-18.85-3.1-27.82-6.4-9.43-3.37-18.32-8.07-26.41-13.97-9.61-6.91-17.69-15.74-23.71-25.94-18.42-32.23-18.42-71.8,0-104.03,6.02-10.2,14.1-19.03,23.71-25.93,8.09-5.9,16.98-10.6,26.41-13.97,8.96-3.3,18.3-5.45,27.79-6.4,3.05-.36,6.12-.54,9.19-.54h3.2v.07c12.16,.46,24.16,2.96,35.49,7.41,22.46,8.52,39.85,26.76,47.28,49.6,.6,1.84,1.15,3.73,1.63,5.65,.09,.25,.13,.51,.13,.77h-151.01c-3.52,11.46-5.38,23.35-5.52,35.34,.14,13.53,2.49,26.95,6.97,39.72,3,8.69,7.07,16.97,12.11,24.65,4.51,7.19,10.43,13.39,17.42,18.21,8.01,5.39,17.25,8.67,26.87,9.52,1.8,.13,3.58,.31,5.41,.31h.6c67.62-.27,82.67-45.54,83.28-47.47l.96-3.06,6.17,1.91Zm-140.75-108.11c-4.6,7.06-8.39,14.63-11.27,22.55h118.34c-.8-5.82-2.55-11.47-5.18-16.72-4.46-8.93-11-16.66-19.08-22.54-9.48-7.16-20.98-11.15-32.86-11.39h-.31l-.59,.04c-11.36,.09-22.44,3.55-31.84,9.93-6.91,4.82-12.77,10.99-17.22,18.14h0Z"
                    fill="currentColor" />
                <path
                    d="M1211.97,130.52c.12,2.73-.82,5.4-2.62,7.46-2.41,2.9-5.19,5.46-8.27,7.63-2.06,1.54-4.38,2.67-6.86,3.34-.13,.04-.26,.04-.34,.09-.91,.21-1.86,.16-2.74-.13h-.04c-.39-.17-.76-.4-1.07-.69-4.07-5.35-10.42-8.47-17.15-8.4-8.55,.42-16.74,3.57-23.36,9-7.86,6.08-14.04,14.06-17.96,23.19,.17,1.93,.3,4.12,.3,6.17h.04v100.6c-.01,11.96,4.98,23.38,13.76,31.51l1.29,1.2h-62.28l1.29-1.2c8.79-8.12,13.8-19.54,13.8-31.51v-100.6h-.04c-.03-8.39-.89-16.77-2.57-24.99-1-5.5-2.6-10.87-4.76-16.03-4.81-12.09-16.8-19.77-29.79-19.08v-6.43c8.49-.02,16.93,1.18,25.08,3.56,6.74,2.02,13.15,5.04,18.99,8.96,6.88,4.75,12.54,11.05,16.55,18.39,3.04,5.44,5.25,11.31,6.56,17.4,3.16-6.76,6.93-13.22,11.27-19.29,6.7-9.86,16.37-17.32,27.6-21.3,9.81-3.36,20.48-3.19,30.18,.47,1.65,.55,3.27,1.2,4.84,1.93l4.5,2.49c1.68,.9,2.93,2.45,3.43,4.29,.22,.64,.34,1.3,.39,1.97Z"
                    fill="currentColor" />
                <path
                    d="M1408.63,255.35l-.95,3.07c-.16,.51-16.5,50.43-86.8,51.93v.06h-6.43v-.1c-2-.07-3.99-.2-5.95-.43-9.51-.95-18.85-3.1-27.82-6.4-9.43-3.37-18.32-8.07-26.41-13.97-9.61-6.91-17.69-15.74-23.71-25.94-18.42-32.23-18.42-71.8,0-104.03,6.02-10.2,14.1-19.03,23.71-25.93,8.09-5.9,16.98-10.6,26.41-13.97,8.96-3.3,18.3-5.45,27.79-6.4,3.05-.36,6.12-.54,9.19-.54h3.2v.07c12.16,.46,24.16,2.96,35.49,7.41,22.46,8.52,39.85,26.76,47.28,49.6,.6,1.84,1.15,3.73,1.63,5.65,.09,.25,.13,.51,.13,.77h-151.01c-3.52,11.46-5.38,23.35-5.52,35.34,.14,13.53,2.49,26.95,6.97,39.72,3,8.69,7.07,16.97,12.11,24.65,4.51,7.19,10.43,13.39,17.42,18.21,8.01,5.39,17.25,8.67,26.87,9.52,1.8,.13,3.58,.31,5.41,.31h.6c67.62-.27,82.67-45.54,83.28-47.47l.96-3.06,6.17,1.91Zm-140.75-108.11c-4.6,7.06-8.39,14.63-11.27,22.55h118.34c-.8-5.82-2.55-11.47-5.18-16.72-4.46-8.93-11-16.66-19.08-22.54-9.48-7.16-20.98-11.15-32.86-11.39h-.31l-.59,.04c-11.36,.09-22.44,3.55-31.84,9.93-6.91,4.82-12.77,10.99-17.22,18.14h0Z"
                    fill="currentColor" />
                <g>
                    <path
                        d="M456.21,79.06c0,13.72-11.12,24.83-24.83,24.83s-24.84-11.12-24.84-24.83,11.12-24.83,24.84-24.83,24.83,11.12,24.83,24.83Z" />
                    <path
                        d="M448.61,358.63c-.01-33.54-.35-182.12-.36-215.66l.04-.17c1.83-8.78-4.87-17.01-13.83-17.01h-4.57c-8.97,0-15.66,8.23-13.83,17.01l.04,.17,.34,215.65c-.13,9.1,1.44,18.11,4.61,26.59,8.51-6.89,17.21-14.19,27.53-20.94-.05-2.61,.03-4.57,.03-5.64Z"
                        fill="currentColor" />
                    <path
                        d="M384.65,408.32c-24.66,9.57-64.24,11.83-127.91-25.08,15.09,30.19,33.76,39.4,42.64,42.64,33.18,12.11,71.13-7.56,96.08-22.61-3.43,1.88-7.02,3.58-10.82,5.05Z"
                        fill="currentColor" />
                    <path
                        d="M395.47,403.27c3.22-1.76,6.32-3.69,9.33-5.74-2.85,1.77-5.97,3.71-9.33,5.74Z"
                        fill="currentColor" />
                    <path
                        d="M421.05,385.21c-5.34,4.33-10.6,8.48-16.12,12.24,6.39-3.98,11.76-7.74,16.49-11.26-.13-.33-.25-.65-.37-.98Z"
                        fill="currentColor" />
                    <path
                        d="M562.94,388.26c-1.39,15.55-12.17,25.27-15.51,28.29-2.35,1.93-5.79,4.44-10.29,6.76-10.6,5.45-20.15,6.22-26.49,6.66-10.17,.71-17.66-.6-26.32-2.12-11.83-2.07-20.4-5.06-23.67-6.26-8.27-3.03-13.1-4.9-18.97-8.95-6.88-4.76-12.55-11.07-16.57-18.41-1.4-2.61-2.63-5.3-3.71-8.05,10.84-8.07,18.37-14.94,27.19-20.43,.14,4.6,.72,10.84,2.57,17.87,1.18,4.46,3.07,11.73,7.79,19.15,10.71,16.85,28.33,22.61,33.58,24.24,7.38,2.3,13.8,2.85,18.1,2.95,3.32-.18,13.55-1.15,22.72-9.09,1.34-1.16,11.92-10.61,12.84-25.94,1.24-20.68-16.2-33.88-17.86-35.09-17.35-12.68-39.53-7.67-54.87-4.21-9.45,2.13-17.69,6.14-17.69,6.14-2.53,1.22-4.9,2.55-7.18,3.96-.02-.52-.03-1.02-.03-1.49,12.41-8.13,27.16-15.46,46.65-20.31,15.48-3.85,30.62-5.31,44.31,2.51,13.88,7.92,24.94,24.64,23.41,41.8Z"
                        fill="currentColor" />
                </g>
            </g>
        </g>
    </g>
</svg>