<svg xmlns="http://www.w3.org/2000/svg" viewBox="0 0 5933.08 1795.72"><g id="Layer_2" data-name="Layer 2"><g id="Layer_1-2" data-name="Layer 1"><path d="M1262.8,854.91c-3-31.29-11.9-55.89-28-77.46-15.86-21.25-71.88-58.11-175.22-64.23-86.57-5.13-160.52,14-213.83,34.62a590.93,590.93,0,0,0,77.11,20.45c48.64,9.47,63.22,6,96.65,16.51C1035.88,790,1071,801,1102,829.89c41.37,38.55,51.68,87.1,57,110.36,19,82.35-10,148.86-19.93,170.73-49.18,108.43-151.55,149.23-183,161.76-74.72,29.78-142.24,28-180.32,23.86a369.63,369.63,0,0,1-128.65-25.24c-10.23-4-51.27-20.19-96.65-56a442.6,442.6,0,0,1-108.81-125.56,655.34,655.34,0,0,1-72.5-169.68,715.16,715.16,0,0,1,24.31-454.52C481,502,590.56,536.89,705,547.34q13.66,1.27,27.42,2a679.08,679.08,0,0,0,97-1.28c9.17-.79,18.3-1.77,27.41-3,55.75-7.41,110.92-22.88,163.61-49,41.89-20.74,181.68-90,189-195.11,1.77-25.46-4.69-46.45-7.59-55.65-34.14-107.74-169.85-143.69-179.78-146.16-5.27-1.31-26.84-6.45-54.93-11.36q-27.59-4.84-55.49-8v-.12l-13.26-1.56a503.42,503.42,0,0,0-63.2-3.22A631,631,0,0,0,662.67,98.88a613.8,613.8,0,0,0-169,75.7A560.55,560.55,0,0,0,336.82,322.5q-18.15,25.86-33.57,53.07C240,331.76,188.07,275.62,155.32,207c-35-73.41-41.49-147.28-38.59-207C79.14,19.74,9.69,63.36.91,129.83c-13.16,99.82,119.29,185.3,201.63,238.39,6,3.87,35,22.18,80.42,45.79a674,674,0,0,0-20.71,543.5,559.62,559.62,0,0,0,118.31,180.24,613.57,613.57,0,0,0,146.86,112.8,629.07,629.07,0,0,0,162.21,63.24,506.53,506.53,0,0,0,49.93,9.75l0,.31,15.93,1.88,9.81,1.16,0-.24c25.5,3.87,203.89,27.84,351.75-101.29C1281,1082.22,1264.78,875.45,1262.8,854.91ZM432.22,383.67a659.6,659.6,0,0,1,109.46-148,441.82,441.82,0,0,1,133.69-96.59,412.63,412.63,0,0,1,216-35.46l4.26.25.31.06c25.13,3.44,65.88,12.39,107.77,39,11.33,7.22,106.8,67.87,105,144.42-1.64,67.65-86,120-114.11,136.62-39.93,23.64-86.75,41.21-137.65,52.64q-13.53,3.06-27.42,5.51a684.39,684.39,0,0,1-97,10.05q-13.62.56-27.42.49c-100.19-.15-204.79-20-297.52-59.89Q418.91,407.86,432.22,383.67Z" fill="#ffe9b8"/><path d="M1485.47,319.64A526,526,0,0,0,1475,218.14a314,314,0,0,0-19.4-65.13,122.92,122.92,0,0,0-120.9-77.45V49.46A359.26,359.26,0,0,1,1436.56,64a281.84,281.84,0,0,1,77,36.33,217.75,217.75,0,0,1,67.22,74.73,297.38,297.38,0,0,1,35.26,144.59v861.56a174,174,0,0,0,56,127.84l5.23,4.81H1424.38l5.21-4.81a174,174,0,0,0,56-127.84Z" fill="#ffe9b8"/><path d="M3468.93,812.81v-1.37c-.26-151.11-41.63-266.23-144.3-266.23a271.44,271.44,0,0,0-183.91,76,577.29,577.29,0,0,0-98.28,118,580,580,0,0,1,5.23,73.55v368.48a174,174,0,0,0,55.95,127.84l5.22,4.8H2856l5.21-4.8a174,174,0,0,0,56-127.84V810.52c-.39-150.64-41.84-265.33-144.28-265.33A271.47,271.47,0,0,0,2589,621.13a577.39,577.39,0,0,0-95.54,113.67,378.32,378.32,0,0,1,2.47,38.06v408.2a174,174,0,0,0,56,127.85l5.22,4.8H2304.27l5.22-4.8a174,174,0,0,0,56-127.85V772.69A525,525,0,0,0,2355,671.19a314,314,0,0,0-19.4-65.13,122.94,122.94,0,0,0-120.9-77.46V502.5a359.42,359.42,0,0,1,101.81,14.55,282,282,0,0,1,77,36.33,217.85,217.85,0,0,1,67.24,74.74,261.56,261.56,0,0,1,26.56,70.09c68.13-96.83,179.68-195.69,305.27-195.69a335.48,335.48,0,0,1,59.47,4.07,207.68,207.68,0,0,1,49.35,15.25A219.64,219.64,0,0,1,2975,577.52a279.24,279.24,0,0,1,61,125.2c67.79-98.21,180.88-200.11,308.39-200.11a333.48,333.48,0,0,1,59.47,4.07,208,208,0,0,1,49.35,15.24,219.7,219.7,0,0,1,73.54,55.69c40.49,46.74,71.53,114.46,72.84,235.15v368.48a174,174,0,0,0,56,127.84l5.22,4.8H3407.91l5.22-4.8a174,174,0,0,0,56-127.84V812.76Z" fill="#ffe9b8"/><path d="M4521.08,1086l-3.86,12.44c-.65,2.09-67,204.73-352.35,210.81v.26h-26.12v-.42c-8.11-.27-16.19-.83-24.16-1.75a458,458,0,0,1-112.92-26,424.3,424.3,0,0,1-107.23-56.69,347,347,0,0,1-96.25-105.3,425.48,425.48,0,0,1,0-422.28,346.68,346.68,0,0,1,96.25-105.28,423.76,423.76,0,0,1,107.23-56.72,458.15,458.15,0,0,1,112.83-26,322.9,322.9,0,0,1,37.29-2.19h13v.29a439.29,439.29,0,0,1,144.09,30.1,321.82,321.82,0,0,1,191.93,201.34c2.43,7.47,4.69,15.13,6.6,23a9.85,9.85,0,0,1,.52,3.14h-613a508.94,508.94,0,0,0-22.41,143.45,502.73,502.73,0,0,0,28.27,161.24,449.25,449.25,0,0,0,49.18,100.08,253.62,253.62,0,0,0,70.7,73.94,232.13,232.13,0,0,0,109.07,38.66c7.3.54,14.54,1.26,21.95,1.26h2.43c274.5-1.1,335.58-184.86,338.05-192.7l3.92-12.43ZM3949.69,647.16a449.67,449.67,0,0,0-45.76,91.55h480.38a217.37,217.37,0,0,0-21-67.88,253.48,253.48,0,0,0-77.44-91.52,229.43,229.43,0,0,0-133.37-46.25h-1.25l-2.38.14a233.57,233.57,0,0,0-129.24,40.31,252.21,252.21,0,0,0-69.91,73.63Z" fill="#ffe9b8"/><path d="M5134.75,579.29a43.15,43.15,0,0,1-10.61,30.28,172.35,172.35,0,0,1-33.59,31,82.83,82.83,0,0,1-27.84,13.58c-.52.17-1,.17-1.39.34a20.84,20.84,0,0,1-11.13-.52H5050a15.43,15.43,0,0,1-4.35-2.78,86.32,86.32,0,0,0-69.6-34.11,162.08,162.08,0,0,0-94.84,36.55,237.44,237.44,0,0,0-72.9,94.13c.69,7.83,1.21,16.71,1.21,25.06h.18v408.4a174,174,0,0,0,55.85,127.89l5.22,4.87H4618l5.22-4.87a174.09,174.09,0,0,0,56-127.89V772.79H4679a514.5,514.5,0,0,0-10.44-101.45,315.49,315.49,0,0,0-19.32-65.07,123.11,123.11,0,0,0-120.93-77.44v-26.1a360.3,360.3,0,0,1,101.79,14.44,284.78,284.78,0,0,1,77.09,36.37,217.45,217.45,0,0,1,67.17,74.65A255.69,255.69,0,0,1,4801,698.84a490.58,490.58,0,0,1,45.76-78.31,227.52,227.52,0,0,1,112.06-86.48,180.76,180.76,0,0,1,122.5,1.92A190.35,190.35,0,0,1,5101,543.8l18.27,10.09a28.11,28.11,0,0,1,13.92,17.4A30.82,30.82,0,0,1,5134.75,579.29Z" fill="#ffe9b8"/><path d="M5933.08,1086l-3.86,12.44c-.65,2.09-67,204.73-352.35,210.81v.26h-26.11v-.42c-8.12-.27-16.2-.83-24.17-1.75a458,458,0,0,1-112.92-26,424.3,424.3,0,0,1-107.23-56.69,347.08,347.08,0,0,1-96.24-105.3,425.43,425.43,0,0,1,0-422.28,346.78,346.78,0,0,1,96.24-105.28,423.76,423.76,0,0,1,107.23-56.72,458.26,458.26,0,0,1,112.83-26,322.9,322.9,0,0,1,37.29-2.19h13v.29a439.29,439.29,0,0,1,144.08,30.1,321.82,321.82,0,0,1,191.93,201.34c2.44,7.47,4.69,15.13,6.6,23a9.59,9.59,0,0,1,.53,3.14h-613a508.94,508.94,0,0,0-22.41,143.45,503,503,0,0,0,28.27,161.24,450.11,450.11,0,0,0,49.18,100.08,253.52,253.52,0,0,0,70.71,73.94,232.09,232.09,0,0,0,109.06,38.66c7.31.54,14.54,1.26,21.95,1.26h2.43c274.51-1.1,335.59-184.86,338.06-192.7l3.91-12.43ZM5361.7,647.16a449.2,449.2,0,0,0-45.77,91.55h480.38a217.11,217.11,0,0,0-21-67.88,253.45,253.45,0,0,0-77.43-91.52,229.44,229.44,0,0,0-133.38-46.25h-1.24l-2.38.14a233.55,233.55,0,0,0-129.24,40.31,252.24,252.24,0,0,0-69.92,73.63Z" fill="#ffe9b8"/><path d="M2034.49,406a65.26,65.26,0,1,1-65.25-65.25A65.25,65.25,0,0,1,2034.49,406Zm1.44,1099.31c0-136.14-1.41-739.31-1.45-875.45l.16-.71a57.34,57.34,0,0,0-56.13-69H1960a57.32,57.32,0,0,0-56.13,69l.16.71,1.38,875.41a297.05,297.05,0,0,0,18.69,107.94c34.53-28,69.88-57.62,111.75-85C2035.62,1517.58,2035.93,1509.64,2035.93,1505.28ZM1776.3,1707c-100.13,38.84-260.78,48-519.23-101.81,61.27,122.55,137,159.94,173.1,173.1,134.69,49.18,288.74-30.68,390-91.8A368.7,368.7,0,0,1,1776.3,1707Zm43.91-20.51c13.08-7.14,25.65-15,37.87-23.29C1846.53,1670.41,1833.84,1678.27,1820.21,1686.51Zm103.85-73.33c-21.68,17.56-43,34.41-65.44,49.69,25.93-16.15,47.73-31.42,66.94-45.72C1925.05,1615.81,1924.54,1614.52,1924.06,1613.18Z" fill="#ffe9b8"/><path d="M2500.05,1625.59c-5.66,63.12-49.4,102.6-63,114.86a237.05,237.05,0,0,1-41.77,27.43c-43,22.13-81.81,25.24-107.54,27-41.26,2.89-71.7-2.44-106.84-8.59a564,564,0,0,1-96.08-25.41c-33.58-12.3-53.18-19.88-77-36.33a218.2,218.2,0,0,1-67.25-74.75,299.22,299.22,0,0,1-15-32.68c44-32.76,74.55-60.65,110.37-82.92a324.61,324.61,0,0,0,10.45,72.55c4.78,18.12,12.47,47.6,31.62,77.73,43.46,68.39,115,91.78,136.31,98.41a267.85,267.85,0,0,0,73.48,12c13.46-.72,55-4.68,92.25-36.88,5.42-4.69,48.4-43.06,52.14-105.3,5.05-84-65.77-137.52-72.5-142.44-70.44-51.48-160.48-31.14-222.76-17.07-38.36,8.67-71.83,24.93-71.83,24.93a313.31,313.31,0,0,0-29.16,16.08c-.08-2.12-.12-4.12-.12-6,50.4-33,110.26-62.77,189.37-82.45,62.84-15.63,124.31-21.56,179.86,10.18C2461.36,1488.08,2506.3,1555.91,2500.05,1625.59Z" fill="#ffe9b8"/></g></g></svg>