<svg xmlns="http://www.w3.org/2000/svg" viewBox="0 0 475.47 586.64">
    <g id="Layer_2" data-name="Layer 2">
        <g id="Layer_1-2" data-name="Layer 1">
            <path
                d="M284.86,12.55l-5.58,4.21c-23.64,17.84-41.21,39-52.25,63-1.28,2.78-2.48,5.63-3.57,8.45l-1,2.52-2.69,0a297.2,297.2,0,0,0-37.13,3l-4.4.63L178.11,90c-1.61-42.59,7.36-69.46,27.42-82.14C213.45,2.85,223,.21,233.82,0,247-.22,262,3.1,278.4,9.88Z"
                fill="currentColor" />
            <path
                d="M259.39,550.65c-2.27,7.6-5.3,15.14-5.3,15.14a180.79,180.79,0,0,1-8.58,18.3l-1.06,2-2.22.13c-5.39.33-10.86.48-16.25.44a232.19,232.19,0,0,1-125.14-37.47A221,221,0,0,1,17.66,450.9c-40.28-94-9.8-206.47,72.46-267.41.74-.55,1.49-1.1,2.23-1.63l1-.69,2-1.43,1.48-1,1-.72c.84-.56,1.67-1.12,2.51-1.66l1.16-.76,1.17-.76,1.71-1.08,1.85-1.13c.38-.24.78-.48,1.19-.72a213.16,213.16,0,0,1,68.31-26.42,4,4,0,0,1,4.78,3.85h0c.07,3.82.17,7.87.29,12,.42,14.29,1.17,28.89,2.24,43.35h0a4,4,0,0,1-3.22,4.21h0a138.25,138.25,0,0,0-39.8,14.31c-33.57,18.4-58.37,51.4-69.86,92.92-12,43.48-7.77,90.53,11.11,122.78,9.88,16.89,35.78,48.86,63.14,49.06a34.23,34.23,0,0,0,6.16-.52c24.54-4.33,37.36-33.52,41.12-42.11,9.68-22.1,9-41.5,7.95-63.43-1.55-32.77-8.38-42.36-13-82.72a434.5,434.5,0,0,1-2.83-46.88l26.83-3.65a198.66,198.66,0,0,0-5.52,50.89,192.09,192.09,0,0,0,4.77,37c6.23,27.87,15.67,43.83,24.61,63.25C271.88,480.94,262.53,540.2,259.39,550.65Z"
                fill="currentColor" />
            <path
                d="M475.47,359.43a266.16,266.16,0,0,1-7.4,65.05l-.77,3.06-3.15,0c-33.47-.31-60.06-2.83-81.28-7.68-30.1-6.88-48.22-18.58-53.85-34.77-6.95-20,7.52-39.18,21.52-57.75,13.62-18.06,27.71-36.74,23.14-56.19-3.9-16.61-21.49-34.35-47.07-47.43-27.23-13.94-60.52-21.19-91.33-19.9-5.54.24-11.07.75-16.42,1.51h0a4,4,0,0,1-4.56-4h0c.09-5.26.25-10.57.48-15.79.6-13.81,1.7-27.82,3.25-41.61h0a4,4,0,0,1,3.45-3.52h0c6.4-.83,12.94-1.39,19.42-1.66,73.51-3.09,146.29,29.6,190,85.31l.35.46a200.78,200.78,0,0,1,13.5,19.62c.15.24.31.52.47.8C465,278,475.15,316.55,475.47,359.43Z"
                fill="currentColor" />
        </g>
    </g>
</svg>