<?xml version="1.0" encoding="UTF-8"?><svg xmlns="http://www.w3.org/2000/svg" viewBox="0 0 46.9 46.9"><g id="a"/><g id="b"><g id="c"><g><path d="M23.45,46.68h0C10.62,46.68,.22,36.28,.22,23.45H.22C.22,10.62,10.62,.22,23.45,.22h0c12.83,0,23.23,10.4,23.23,23.23h0c0,12.83-10.4,23.23-23.23,23.23Z" fill="none" stroke="#ffe9b8" stroke-miterlimit="10" stroke-width=".43"/><g><g><rect x="13.53" y="18.84" width="4.26" height="13.77" fill="#ffe9b8"/><path d="M15.64,17.04c1.39,0,2.52-1.14,2.52-2.54s-1.13-2.54-2.52-2.54-2.52,1.14-2.52,2.54,1.13,2.54,2.52,2.54Z" fill="#ffe9b8"/></g><path d="M24.61,25.39c0-1.94,.89-3.09,2.6-3.09,1.57,0,2.32,1.11,2.32,3.09v7.23h4.24v-8.72c0-3.69-2.09-5.47-5.01-5.47s-4.15,2.28-4.15,2.28v-1.86h-4.09v13.77h4.09v-7.23Z" fill="#ffe9b8"/></g></g></g></g></svg>