<?xml version="1.0" encoding="UTF-8"?>
<svg xmlns="http://www.w3.org/2000/svg" viewBox="0 0 46.9 46.9">
    <g id="a" />
    <g id="b">
        <g id="c">
            <g>
                <path
                    d="M23.45,46.68h0C10.62,46.68,.22,36.28,.22,23.45H.22C.22,10.62,10.62,.22,23.45,.22h0c12.83,0,23.23,10.4,23.23,23.23h0c0,12.83-10.4,23.23-23.23,23.23Z"
                    fill="none" stroke="#ffe9b8" stroke-miterlimit="10" stroke-width=".43" />
                <path
                    d="M12.47,31.28c1.99,1.28,4.36,2.02,6.9,2.02,8.36,0,13.08-7.06,12.8-13.4,.88-.63,1.64-1.43,2.25-2.33-.81,.36-1.68,.6-2.59,.71,.93-.56,1.64-1.44,1.98-2.49-.87,.52-1.83,.89-2.86,1.09-.82-.88-1.99-1.42-3.29-1.42-2.91,0-5.04,2.71-4.39,5.53-3.74-.19-7.06-1.98-9.28-4.71-1.18,2.02-.61,4.67,1.39,6.01-.74-.02-1.43-.23-2.04-.56-.05,2.09,1.45,4.04,3.61,4.47-.63,.17-1.33,.21-2.03,.08,.57,1.79,2.24,3.09,4.21,3.13-1.89,1.48-4.28,2.15-6.67,1.86Z"
                    fill="#772f1a" />
            </g>
        </g>
    </g>
</svg>