<?xml version="1.0" encoding="utf-8"?>
<!-- Generator: Adobe Illustrator 26.1.0, SVG Export Plug-In . SVG Version: 6.00 Build 0)  -->
<svg version="1.1" id="Layer_1" xmlns="http://www.w3.org/2000/svg" xmlns:xlink="http://www.w3.org/1999/xlink" x="0px" y="0px"
	 viewBox="0 0 377.9 292.6" style="enable-background:new 0 0 377.9 292.6;" xml:space="preserve">
<style type="text/css">
	.st0{fill:#772f1a;}
</style>
<g>
	<path class="st0" d="M258.5,65.6h-137c-26.9,0-48.7,21.8-48.7,48.7v68.5c0,26.9,21.8,48.7,48.7,48.7h137
		c26.9,0,48.7-21.8,48.7-48.7v-68.5C307.2,87.4,285.4,65.6,258.5,65.6L258.5,65.6z M225.6,151.8l-64.1,30.6
		c-1.7,0.8-3.7-0.4-3.7-2.3V117c0-1.9,2-3.2,3.7-2.3l64.1,32.5C227.6,148.2,227.5,150.9,225.6,151.8L225.6,151.8z"/>
</g>
</svg>
